<?xml version="1.0" standalone="no"?>
<!DOCTYPE svg PUBLIC "-//W3C//DTD SVG 20010904//EN"
 "http://www.w3.org/TR/2001/REC-SVG-20010904/DTD/svg10.dtd">
<svg version="1.0" xmlns="http://www.w3.org/2000/svg"
 width="460.000000pt" height="460.000000pt" viewBox="0 0 460.000000 460.000000"
 preserveAspectRatio="xMidYMid meet">

<g transform="translate(0.000000,460.000000) scale(0.100000,-0.100000)"
fill="#000000" stroke="none">
<path d="M2160 4594 c-202 -18 -396 -53 -522 -94 -67 -22 -125 -40 -131 -40
-5 0 -47 -18 -92 -39 -45 -21 -93 -42 -105 -46 -12 -4 -49 -22 -80 -41 -32
-18 -68 -38 -81 -43 -27 -10 -176 -109 -226 -150 -18 -14 -57 -46 -88 -71 -71
-58 -247 -234 -305 -305 -25 -31 -57 -70 -71 -88 -41 -50 -140 -199 -150 -226
-5 -13 -25 -49 -43 -81 -19 -31 -37 -68 -41 -81 -5 -13 -23 -55 -41 -94 -58
-121 -122 -346 -151 -525 -58 -362 -26 -768 86 -1084 12 -33 21 -65 21 -73 0
-7 18 -50 39 -96 22 -45 51 -107 65 -137 63 -133 238 -403 282 -437 9 -6 27
-26 40 -44 33 -45 119 -134 189 -194 32 -28 74 -65 93 -82 20 -18 40 -33 44
-33 4 0 16 -8 26 -18 10 -10 38 -31 62 -48 25 -17 73 -49 107 -72 34 -23 65
-42 68 -42 3 0 37 -18 76 -40 39 -22 75 -40 80 -40 5 0 46 -17 92 -39 45 -21
98 -43 117 -49 19 -5 89 -26 154 -46 144 -44 352 -75 561 -82 130 -5 169 -2
290 19 177 31 297 77 609 236 141 72 280 135 356 161 115 40 135 43 251 48
138 5 221 -8 332 -53 33 -14 66 -25 72 -25 7 0 34 -12 61 -26 27 -15 72 -39
100 -54 65 -35 199 -124 244 -164 l35 -30 3 145 c1 79 1 617 -1 1194 -3 1017
-4 1055 -25 1195 -12 80 -33 183 -48 230 -14 47 -36 119 -49 160 -12 41 -38
109 -59 151 -20 42 -36 81 -36 86 0 6 -18 42 -40 81 -22 38 -40 72 -40 75 0 5
-110 169 -166 247 -31 43 -86 108 -139 164 -22 23 -47 51 -56 62 -10 10 -45
44 -79 74 -34 30 -78 70 -98 88 -20 17 -39 32 -44 32 -4 0 -20 12 -35 26 -35
33 -181 129 -249 165 -28 14 -69 36 -90 47 -155 82 -444 184 -575 202 -38 6
-110 17 -160 25 -92 15 -357 26 -439 19z m290 -1298 c87 -16 269 -77 314 -106
17 -11 46 -28 65 -37 95 -50 266 -225 328 -338 150 -271 181 -532 96 -800 -30
-96 -116 -278 -139 -293 -5 -4 -23 -24 -38 -44 -35 -47 -107 -119 -154 -154
-20 -15 -40 -33 -44 -38 -15 -23 -197 -109 -293 -139 -153 -49 -306 -60 -447
-33 -106 20 -262 74 -311 107 -23 16 -47 29 -54 29 -12 0 -105 72 -167 129
-44 41 -137 159 -180 226 -34 55 -78 169 -107 275 -75 279 5 615 204 859 64
77 178 178 256 223 208 123 457 172 671 134z"/>
</g>
</svg>
