<?xml version="1.0" encoding="UTF-8"?>
<svg version="1.1" xmlns="http://www.w3.org/2000/svg" width="144" height="144">
<path d="M0 0 C47.19 0 94.38 0 143 0 C143 47.19 143 94.38 143 143 C95.81 143 48.62 143 0 143 C0 95.81 0 48.62 0 0 Z " fill="#18CFF8" transform="translate(0,0)"/>
<path d="M0 0 C47.19 0 94.38 0 143 0 C143 47.19 143 94.38 143 143 C95.81 143 48.62 143 0 143 C0 95.81 0 48.62 0 0 Z M8 8 C8 49.91 8 91.82 8 135 C49.91 135 91.82 135 135 135 C135 93.09 135 51.18 135 8 C93.09 8 51.18 8 8 8 Z " fill="#13394C" transform="translate(0,0)"/>
<path d="M0 0 C2.57637471 1.88515223 3.59667428 3.19334857 5 6 C5.23188406 13.30434783 5.23188406 13.30434783 4 17 C5.49366742 20.87401907 5.49366742 20.87401907 8 24 C10.26396294 24.74200647 12.45299803 25.06490399 14.8046875 25.4296875 C17.29698424 26.07715249 18.33565254 26.80276934 20.0625 28.6875 C22.37154395 32.63522029 22.8029956 34.50322464 22 39 C20.19232307 41.9640585 18.15604655 44.42197673 15 46 C9.84565588 46.50698467 9.84565588 46.50698467 7 46 C4.0625 43.5625 4.0625 43.5625 2 41 C0.12175109 39.12175109 -3.03935276 39.60897603 -5.5625 39.4375 C-6.76003906 39.35371094 -7.95757812 39.26992187 -9.19140625 39.18359375 C-10.58166016 39.09271484 -10.58166016 39.09271484 -12 39 C-12.29648438 39.62390625 -12.59296875 40.2478125 -12.8984375 40.890625 C-14.30217008 43.57862356 -15.30211317 44.58005957 -18 46 C-23.07428571 46.64435374 -23.07428571 46.64435374 -26 46 C-28.9375 43.5625 -28.9375 43.5625 -31 41 C-31.33 40.67 -31.66 40.34 -32 40 C-32.44166754 36.94618444 -32.48223087 34.04894358 -32 31 C-29.5625 28 -29.5625 28 -27 26 C-26.67 25.67 -26.34 25.34 -26 25 C-24.906875 24.95875 -23.81375 24.9175 -22.6875 24.875 C-18.78386579 24.33259746 -18.78386579 24.33259746 -16.5 21.0625 C-14.49894313 17.01035984 -15.22697579 13.71080574 -15.89453125 9.375 C-16.05978156 5.65380782 -14.40941497 3.68477668 -12 1 C-8.31123973 -0.84438013 -4.02669687 -0.48788734 0 0 Z " fill="#0C3F55" transform="translate(101,75)"/>
<path d="M0 0 C0.495 0.99 0.495 0.99 1 2 C-2.94020504 12.49802882 -8.12083015 20.4549561 -18.3125 25.70703125 C-29.31941346 30.70272858 -40.89249427 32.31776432 -52.8046875 33.66796875 C-67.10097841 35.31111462 -77.71002487 37.58629581 -89 47 C-87.17806557 36.75161885 -79.34715084 27.8659794 -71 22 C-62.32271653 16.72612431 -53.62764505 15.14668369 -43.66796875 13.921875 C-42.90533218 13.82667068 -42.14269562 13.73146637 -41.35694885 13.63337708 C-34.96158069 12.83756034 -34.96158069 12.83756034 -31.79174805 12.47900391 C-19.79887546 11.10831959 -8.6304344 9.28370424 0 0 Z " fill="#13394C" transform="translate(113,23)"/>
<path d="M0 0 C1.63405093 4.9021528 -0.79064398 8.46392342 -2.91796875 12.97265625 C-5.828357 17.20445905 -8.61290836 17.87367643 -13.43359375 19.11328125 C-17.69178482 20.58452839 -18.89016517 23.13196947 -21 27 C-21.495 28.485 -21.495 28.485 -22 30 C-26.24438668 31.02424144 -30.38025544 31.16578169 -34.72265625 31.2109375 C-36.24675502 31.23903368 -37.7708434 31.26769828 -39.29492188 31.296875 C-41.66853221 31.33783715 -44.04195447 31.3747698 -46.41577148 31.40136719 C-57.32869337 31.53388042 -68.13351962 31.70747019 -78 37 C-77.63785983 31.08504387 -76.15306899 27.29663187 -72 23 C-64.72783063 17.22190316 -56.97516086 15.85309206 -47.9375 15.1875 C-21.83476201 12.95779261 -21.83476201 12.95779261 0 0 Z " fill="#13394B" transform="translate(101,51)"/>
<path d="M0 0 C41.91 0 83.82 0 127 0 C127 41.91 127 83.82 127 127 C85.09 127 43.18 127 0 127 C0 85.09 0 43.18 0 0 Z M1 1 C1 41.92 1 82.84 1 125 C41.92 125 82.84 125 125 125 C125 84.08 125 43.16 125 1 C84.08 1 43.16 1 1 1 Z " fill="#31C4E7" transform="translate(8,8)"/>
<path d="M0 0 C0.66 0 1.32 0 2 0 C2.12375 1.051875 2.2475 2.10375 2.375 3.1875 C2.9060597 7.28786036 2.9060597 7.28786036 5 12 C8.96 12 12.92 12 17 12 C17.93786082 6.94990405 17.93786082 6.94990405 17 2 C17.598125 2.185625 18.19625 2.37125 18.8125 2.5625 C21.16408762 3.22093687 21.16408762 3.22093687 24 2 C28.65840108 2.28787872 32.80420112 3.19579862 36.0625 6.6875 C38.37154395 10.63522029 38.8029956 12.50322464 38 17 C36.19232307 19.9640585 34.15604655 22.42197673 31 24 C25.84565588 24.50698467 25.84565588 24.50698467 23 24 C20.0625 21.5625 20.0625 21.5625 18 19 C16.12175109 17.12175109 12.96064724 17.60897603 10.4375 17.4375 C9.23996094 17.35371094 8.04242188 17.26992187 6.80859375 17.18359375 C5.41833984 17.09271484 5.41833984 17.09271484 4 17 C3.70351562 17.62390625 3.40703125 18.2478125 3.1015625 18.890625 C1.69782992 21.57862356 0.69788683 22.58005957 -2 24 C-7.07428571 24.64435374 -7.07428571 24.64435374 -10 24 C-12.9375 21.5625 -12.9375 21.5625 -15 19 C-15.33 18.67 -15.66 18.34 -16 18 C-16.42213552 13.99783051 -16.50386347 10.25965867 -15 6.5 C-11.86151938 4.14613953 -8.87888556 4.25435315 -5 4 C-4.01 5.485 -4.01 5.485 -3 7 C-4.2065625 7.556875 -4.2065625 7.556875 -5.4375 8.125 C-8.27215129 9.79952186 -8.27215129 9.79952186 -8.875 13 C-9.1801923 16.05183614 -9.1801923 16.05183614 -8 19 C-5.36 18.34 -2.72 17.68 0 17 C-0.08378906 15.94039062 -0.16757813 14.88078125 -0.25390625 13.7890625 C-0.35706832 12.40106375 -0.45991663 11.01304165 -0.5625 9.625 C-0.61857422 8.92632812 -0.67464844 8.22765625 -0.73242188 7.5078125 C-1.11328125 2.2265625 -1.11328125 2.2265625 0 0 Z " fill="#103B4F" transform="translate(85,97)"/>
<path d="M0 0 C1.18797432 0.00212242 1.18797432 0.00212242 2.39994812 0.00428772 C4.91641094 0.00986168 7.43278306 0.02240932 9.94921875 0.03515625 C11.660806 0.04017462 13.37239466 0.04473694 15.08398438 0.04882812 C19.26826383 0.05982257 23.45247594 0.07706918 27.63671875 0.09765625 C24.36644844 4.12481629 21.66988145 7.08282088 17.19921875 9.84765625 C16.29300781 10.42 15.38679688 10.99234375 14.453125 11.58203125 C7.58301913 15.27912012 1.31471632 15.77357351 -6.36328125 15.09765625 C-11.066603 13.47287237 -14.23785758 10.98075838 -17.36328125 7.09765625 C-17.36328125 4.91015625 -17.36328125 4.91015625 -16.36328125 3.09765625 C-11.19309469 -0.34913479 -6.05621415 -0.04103967 0 0 Z " fill="#13394B" transform="translate(43.36328125,90.90234375)"/>
<path d="M0 0 C2.28684568 0.00359002 4.5246271 0.10167473 6.80078125 0.31640625 C10.85212054 6.70033482 10.85212054 6.70033482 10.61328125 9.56640625 C10.34515625 10.14390625 10.07703125 10.72140625 9.80078125 11.31640625 C9.47078125 12.30640625 9.14078125 13.29640625 8.80078125 14.31640625 C6.86518812 14.45144763 4.92690925 14.54841754 2.98828125 14.62890625 C1.36986328 14.71591797 1.36986328 14.71591797 -0.28125 14.8046875 C-3.19921875 14.31640625 -3.19921875 14.31640625 -5.09375 11.921875 C-6.19921875 9.31640625 -6.19921875 9.31640625 -6.07421875 7.31640625 C-5.78546875 6.65640625 -5.49671875 5.99640625 -5.19921875 5.31640625 C-4.70421875 3.95515625 -4.70421875 3.95515625 -4.19921875 2.56640625 C-2.19921875 0.31640625 -2.19921875 0.31640625 0 0 Z " fill="#1BCEF6" transform="translate(93.19921875,94.68359375)"/>
<path d="M0 0 C1.32 0.66 2.64 1.32 4 2 C4 2.66 4 3.32 4 4 C6.97 4 9.94 4 13 4 C13 4.33 13 4.66 13 5 C10.03 5 7.06 5 4 5 C3.566875 6.2065625 3.566875 6.2065625 3.125 7.4375 C2 10 2 10 0 11 C0 9.68 0 8.36 0 7 C-0.66 7 -1.32 7 -2 7 C-1.96519531 8.20398438 -1.93039063 9.40796875 -1.89453125 10.6484375 C-1.8663972 12.22394442 -1.83909663 13.79946638 -1.8125 15.375 C-1.78736328 16.1690625 -1.76222656 16.963125 -1.73632812 17.78125 C-1.70995595 19.85586148 -1.84513538 21.93100865 -2 24 C-5.20808915 26.1387261 -6.27698497 26.47730962 -10 26 C-12 23 -12 23 -11.9375 20.0625 C-10.78580061 16.30028198 -9.21991837 15.14661225 -6 13 C-7.175625 12.7834375 -7.175625 12.7834375 -8.375 12.5625 C-11 12 -11 12 -13 11 C-12.67 10.67 -12.34 10.34 -12 10 C-10.9275 10 -9.855 10 -8.75 10 C-4.97364786 9.40298355 -4.97364786 9.40298355 -3.42578125 6.93359375 C-2.18188797 4.65609288 -1.04170869 2.37624793 0 0 Z " fill="#0A465B" transform="translate(87,90)"/>
<path d="M0 0 C2.64 0 5.28 0 8 0 C8 0.99 8 1.98 8 3 C8.66 3 9.32 3 10 3 C9.67 5.31 9.34 7.62 9 10 C7.35 10.66 5.7 11.32 4 12 C4 12.66 4 13.32 4 14 C5.98 14 7.96 14 10 14 C8 16 8 16 4.1875 16.4375 C0.56172025 16.37157673 0.05666105 16.04701662 -2.9375 13.5625 C-3.618125 12.716875 -4.29875 11.87125 -5 11 C-6.87824891 9.12175109 -10.03935276 9.60897603 -12.5625 9.4375 C-13.76003906 9.35371094 -14.95757812 9.26992187 -16.19140625 9.18359375 C-17.11824219 9.12300781 -18.04507813 9.06242187 -19 9 C-19.33 9.99 -19.66 10.98 -20 12 C-20.33 11.34 -20.66 10.68 -21 10 C-20.67 9.34 -20.34 8.68 -20 8 C-15.05 8 -10.1 8 -5 8 C-4.34 9.32 -3.68 10.64 -3 12 C-2.01 12 -1.02 12 0 12 C-0.33 11.01 -0.66 10.02 -1 9 C-1.2295082 2.45901639 -1.2295082 2.45901639 0 0 Z " fill="#07435A" transform="translate(108,105)"/>
<path d="M0 0 C0.91007812 0.00902344 1.82015625 0.01804687 2.7578125 0.02734375 C3.45648438 0.03894531 4.15515625 0.05054687 4.875 0.0625 C5.205 0.7225 5.535 1.3825 5.875 2.0625 C4.225 2.3925 2.575 2.7225 0.875 3.0625 C2.195 4.3825 3.515 5.7025 4.875 7.0625 C3 12.9375 3 12.9375 1.875 14.0625 C-0.46444736 13.77519945 -2.7989143 13.44313221 -5.125 13.0625 C-5.455 10.0925 -5.785 7.1225 -6.125 4.0625 C-8.52263185 6.46013185 -8.46780586 7.39523498 -8.75 10.6875 C-8.82476562 11.50476563 -8.89953125 12.32203125 -8.9765625 13.1640625 C-9.02554688 13.79054688 -9.07453125 14.41703125 -9.125 15.0625 C-11.125 13.0625 -11.125 13.0625 -11.5 10.3125 C-11.03524367 6.28461178 -9.61746304 4.21473267 -7.125 1.0625 C-4.60024538 -0.19987731 -2.81299534 -0.03606404 0 0 Z " fill="#09495F" transform="translate(96.125,74.9375)"/>
<path d="M0 0 C1.18797432 0.00212242 1.18797432 0.00212242 2.39994812 0.00428772 C4.91641094 0.00986168 7.43278306 0.02240932 9.94921875 0.03515625 C11.660806 0.04017462 13.37239466 0.04473694 15.08398438 0.04882812 C19.26826383 0.05982257 23.45247594 0.07706918 27.63671875 0.09765625 C26.31671875 1.41765625 24.99671875 2.73765625 23.63671875 4.09765625 C23.63671875 3.43765625 23.63671875 2.77765625 23.63671875 2.09765625 C12.08671875 2.09765625 0.53671875 2.09765625 -11.36328125 2.09765625 C-11.69328125 3.08765625 -12.02328125 4.07765625 -12.36328125 5.09765625 C-13.35328125 4.76765625 -14.34328125 4.43765625 -15.36328125 4.09765625 C-15.69328125 5.41765625 -16.02328125 6.73765625 -16.36328125 8.09765625 C-16.69328125 6.77765625 -17.02328125 5.45765625 -17.36328125 4.09765625 C-12.09989318 -0.38597063 -6.65488851 -0.04509656 0 0 Z " fill="#05546C" transform="translate(43.36328125,90.90234375)"/>
<path d="M0 0 C1.64517685 0.01004837 3.29035964 0.01917094 4.93554688 0.02734375 C8.93634615 0.04921377 12.93685666 0.08364146 16.9375 0.125 C17.4325 2.105 17.4325 2.105 17.9375 4.125 C16.6175 4.455 15.2975 4.785 13.9375 5.125 C14.2675 4.465 14.5975 3.805 14.9375 3.125 C10.0811398 3.10015439 5.22481716 3.08207135 0.3684082 3.07006836 C-1.28133794 3.06506081 -2.9310797 3.05825284 -4.58081055 3.04956055 C-6.96143685 3.03733746 -9.34200413 3.03173578 -11.72265625 3.02734375 C-12.81683617 3.01960182 -12.81683617 3.01960182 -13.93312073 3.01170349 C-18.41191362 3.01122036 -22.64257359 3.39214932 -27.0625 4.125 C-27.0625 3.465 -27.0625 2.805 -27.0625 2.125 C-18.11805229 -0.50754892 -9.23156505 -0.09831668 0 0 Z " fill="#24CAF2" transform="translate(55.0625,88.875)"/>
<path d="M0 0 C11.62123174 -0.76567413 11.62123174 -0.76567413 14.94140625 1.078125 C16.25 2.4375 16.25 2.4375 18 5 C19.88059033 6.88059033 22.49890038 6.12361218 24.9921875 6.1328125 C27.20774018 6.07126531 27.20774018 6.07126531 30 5 C29.67 5.99 29.34 6.98 29 8 C27.25034642 8.05429959 25.50020213 8.09292823 23.75 8.125 C22.77546875 8.14820312 21.8009375 8.17140625 20.796875 8.1953125 C17.93372787 7.99537206 16.34844762 7.62667702 14 6 C13.67 5.01 13.34 4.02 13 3 C6.20191755 2.15764591 6.20191755 2.15764591 -0.0078125 4.3359375 C-1.1171298 5.43493557 -2.21889576 6.54161491 -3.3125 7.65625 C-5.37879057 9.30162952 -6.5705345 9.46151521 -9.1875 9.5 C-12.38336397 9.0808703 -14.3589244 8.76071707 -17 7 C-16.67 6.34 -16.34 5.68 -16 5 C-15.34 5.33 -14.68 5.66 -14 6 C-8.18654053 6.53365513 -8.18654053 6.53365513 -3.0625 4.125 C-0.96116416 2.17402388 -0.96116416 2.17402388 0 0 Z " fill="#28B8DA" transform="translate(89,114)"/>
<path d="M0 0 C0 0.99 0 1.98 0 3 C-0.928125 3.309375 -0.928125 3.309375 -1.875 3.625 C-4.84653645 5.54775888 -5.13024659 7.66594527 -6 11 C-6.99 10.34 -7.98 9.68 -9 9 C-9.33 10.65 -9.66 12.3 -10 14 C-10.66 13.67 -11.32 13.34 -12 13 C-12.46551724 4.93103448 -12.46551724 4.93103448 -10.75 1.5 C-7.19779621 -1.54474611 -4.37847116 -1.09461779 0 0 Z " fill="#0F3B4E" transform="translate(81,102)"/>
<path d="M0 0 C1 2 1 2 0.0625 5.125 C-0.288125 6.07375 -0.63875 7.0225 -1 8 C-0.45694717 7.85789093 0.08610565 7.71578186 0.64561462 7.56936646 C6.25588238 6.19834899 11.43065244 5.72891097 17.19140625 5.8046875 C18.02212143 5.8075174 18.85283661 5.81034729 19.70872498 5.81326294 C22.32680505 5.82433709 24.94452571 5.8494164 27.5625 5.875 C29.35220855 5.88504635 31.14192254 5.89416928 32.93164062 5.90234375 C37.28789604 5.92423435 41.64388738 5.95867367 46 6 C46 6.33 46 6.66 46 7 C44.50388184 7.02187378 44.50388184 7.02187378 42.97753906 7.04418945 C39.21987906 7.10286895 35.46277557 7.18008593 31.70556641 7.26245117 C30.09009949 7.29537727 28.47452644 7.3235058 26.85888672 7.34643555 C15.86913255 7.50654666 4.93376345 7.6738058 -5 13 C-4.54996653 7.37458159 -3.31558515 4.38512875 0 0 Z " fill="#033E56" transform="translate(28,75)"/>
<path d="M0 0 C0.66 0 1.32 0 2 0 C3 3 3 3 2 6 C1.93197033 7.72795352 1.91504355 9.45835365 1.9375 11.1875 C1.94652344 12.08855469 1.95554687 12.98960938 1.96484375 13.91796875 C1.97644531 14.60503906 1.98804687 15.29210937 2 16 C1.01 16 0.02 16 -1 16 C-1.66 15.01 -2.32 14.02 -3 13 C-5.62527027 12.49140984 -5.62527027 12.49140984 -8.5625 12.4375 C-11.56640625 12.30859375 -11.56640625 12.30859375 -14 12 C-14.33 11.34 -14.66 10.68 -15 10 C-9.555 9.505 -9.555 9.505 -4 9 C-3.67 8.01 -3.34 7.02 -3 6 C-2.34 6 -1.68 6 -1 6 C-1.020625 5.195625 -1.04125 4.39125 -1.0625 3.5625 C-1 1 -1 1 0 0 Z " fill="#143746" transform="translate(106,101)"/>
<path d="M0 0 C0.66 0.33 1.32 0.66 2 1 C2.4140625 3.50390625 2.4140625 3.50390625 2.625 6.5625 C2.69976562 7.57441406 2.77453125 8.58632812 2.8515625 9.62890625 C2.90054688 10.41136719 2.94953125 11.19382812 3 12 C5.64 12.33 8.28 12.66 11 13 C11 13.99 11 14.98 11 16 C8.03 16 5.06 16 2 16 C2 15.34 2 14.68 2 14 C0.68 13.34 -0.64 12.68 -2 12 C-2.05422947 10.5629191 -2.09289723 9.12524538 -2.125 7.6875 C-2.14820312 6.88699219 -2.17140625 6.08648437 -2.1953125 5.26171875 C-2 3 -2 3 0 0 Z " fill="#133749" transform="translate(89,78)"/>
<path d="M0 0 C4.875 0.875 4.875 0.875 6 2 C6.16796875 3.92578125 6.16796875 3.92578125 6.1875 6.3125 C6.20167969 7.09238281 6.21585938 7.87226562 6.23046875 8.67578125 C5.97984413 11.2032668 5.26373772 12.81718031 4 15 C1.69 15 -0.62 15 -3 15 C-3 14.34 -3 13.68 -3 13 C-1.35 12.34 0.3 11.68 2 11 C2.33 8.69 2.66 6.38 3 4 C2.34 4 1.68 4 1 4 C0.67 2.68 0.34 1.36 0 0 Z " fill="#133848" transform="translate(115,104)"/>
<path d="M0 0 C2 0.6875 2 0.6875 4 2.6875 C3.625 5.3125 3.625 5.3125 3 7.6875 C1.02 8.0175 -0.96 8.3475 -3 8.6875 C-5 5.6875 -5 5.6875 -4.75 3.0625 C-4.5025 2.27875 -4.255 1.495 -4 0.6875 C-2 -0.3125 -2 -0.3125 0 0 Z " fill="#27BFE4" transform="translate(113,106.3125)"/>
<path d="M0 0 C4.875 0.875 4.875 0.875 6 2 C6.1875 4.4375 6.1875 4.4375 6 7 C5.34 7.66 4.68 8.32 4 9 C1.375 8.625 1.375 8.625 -1 8 C-1.625 5.6875 -1.625 5.6875 -2 3 C-1.34 2.01 -0.68 1.02 0 0 Z " fill="#28C0E3" transform="translate(77,106)"/>
<path d="M0 0 C2.5625 0.1875 2.5625 0.1875 4.5625 2.1875 C4.00694444 6.74305556 4.00694444 6.74305556 2.5625 8.1875 C0.0625 8.3125 0.0625 8.3125 -2.4375 8.1875 C-3.4375 7.1875 -3.4375 7.1875 -3.5625 4.1875 C-3.39891479 0.26145498 -3.39891479 0.26145498 0 0 Z " fill="#31BDDF" transform="translate(95.4375,80.8125)"/>
<path d="M0 0 C0.33 0.66 0.66 1.32 1 2 C0.67 2.66 0.34 3.32 0 4 C0.60328125 3.77183594 1.2065625 3.54367188 1.828125 3.30859375 C2.62734375 3.02113281 3.4265625 2.73367187 4.25 2.4375 C5.03890625 2.14746094 5.8278125 1.85742188 6.640625 1.55859375 C9.19103452 0.95477163 10.55322229 1.1526068 13 2 C11.948125 2.43699219 11.948125 2.43699219 10.875 2.8828125 C4.58984269 5.59841036 -0.73933173 8.61359752 -6 13 C-4.75696561 7.82069003 -3.14512215 4.29833361 0 0 Z " fill="#064F68" transform="translate(30,57)"/>
<path d="M0 0 C1.2065625 0.0309375 1.2065625 0.0309375 2.4375 0.0625 C2.7675 1.7125 3.0975 3.3625 3.4375 5.0625 C4.0975 5.0625 4.7575 5.0625 5.4375 5.0625 C5.4375 6.7125 5.4375 8.3625 5.4375 10.0625 C4.1175 10.3925 2.7975 10.7225 1.4375 11.0625 C1.169375 9.969375 0.90125 8.87625 0.625 7.75 C-0.43913739 4.44557337 -0.90904664 3.11289578 -3.5625 1.0625 C-2.5625 0.0625 -2.5625 0.0625 0 0 Z " fill="#13364B" transform="translate(99.5625,76.9375)"/>
<path d="M0 0 C1.5625 1.75 1.5625 1.75 3 4 C2.75 6.0625 2.75 6.0625 2 8 C1.67 8.99 1.34 9.98 1 11 C-2.96 11 -6.92 11 -11 11 C-11.33 10.01 -11.66 9.02 -12 8 C-8.04 8.33 -4.08 8.66 0 9 C0 6.03 0 3.06 0 0 Z " fill="#2BB9DA" transform="translate(101,98)"/>
<path d="M0 0 C11.55 0 23.1 0 35 0 C34.67 1.32 34.34 2.64 34 4 C33.01 3.67 32.02 3.34 31 3 C31.33 2.67 31.66 2.34 32 2 C21.44 1.67 10.88 1.34 0 1 C0 0.67 0 0.34 0 0 Z " fill="#30BADC" transform="translate(38,90)"/>
<path d="M0 0 C1 2 1 2 0.0625 5.125 C-0.288125 6.07375 -0.63875 7.0225 -1 8 C1.31 8 3.62 8 6 8 C2.41247258 9.86551426 -1.27812193 11.42535928 -5 13 C-4.54996653 7.37458159 -3.31558515 4.38512875 0 0 Z " fill="#08506A" transform="translate(28,75)"/>
<path d="M0 0 C1.8253125 0.0309375 1.8253125 0.0309375 3.6875 0.0625 C3.3575 0.7225 3.0275 1.3825 2.6875 2.0625 C0.359375 2.37109375 0.359375 2.37109375 -2.5625 2.5 C-7.05576013 2.8184656 -9.54073372 3.54798915 -13.3125 6.0625 C-17.125 6.75 -17.125 6.75 -20.3125 7.0625 C-18.92938137 4.29626274 -17.411663 4.10847614 -14.5625 3 C-13.27085938 2.48759766 -13.27085938 2.48759766 -11.953125 1.96484375 C-7.93478358 0.59171229 -4.24242645 -0.07190553 0 0 Z " fill="#29BDDF" transform="translate(52.3125,56.9375)"/>
<path d="M0 0 C0.33 0.66 0.66 1.32 1 2 C0.00390625 4.6015625 0.00390625 4.6015625 -1.4375 7.625 C-1.91058594 8.62789062 -2.38367188 9.63078125 -2.87109375 10.6640625 C-3.24363281 11.43492188 -3.61617188 12.20578125 -4 13 C-5 10 -5 10 -5 8 C-6.32 7.67 -7.64 7.34 -9 7 C-8.071875 6.401875 -7.14375 5.80375 -6.1875 5.1875 C-3.79745282 3.54727155 -1.91529747 2.1281083 0 0 Z " fill="#065873" transform="translate(113,23)"/>
<path d="M0 0 C0 0.66 0 1.32 0 2 C-0.66 2 -1.32 2 -2 2 C-2.2475 2.556875 -2.495 3.11375 -2.75 3.6875 C-4.22924818 6.42410913 -5.93467439 8.67650869 -8 11 C-8.66 11 -9.32 11 -10 11 C-8.3679875 6.23996354 -5.76603973 0 0 0 Z " fill="#25BFE0" transform="translate(89,69)"/>
<path d="M0 0 C0.66 0.33 1.32 0.66 2 1 C0 4 0 4 -1.9375 4.875 C-4.23663894 5.89904829 -4.23663894 5.89904829 -5.5 8.5625 C-7 11 -7 11 -9.1875 11.8125 C-9.785625 11.874375 -10.38375 11.93625 -11 12 C-8.47295673 6.78797325 -4.38226641 3.6119868 0 0 Z " fill="#07485E" transform="translate(42,45)"/>
<path d="M0 0 C1.21386936 3.64160808 0.6674695 4.33165469 -0.9375 7.6875 C-1.31777344 8.49574219 -1.69804688 9.30398437 -2.08984375 10.13671875 C-2.39019531 10.75160156 -2.69054687 11.36648437 -3 12 C-4 9 -4 9 -3 6 C-3.99 5.67 -4.98 5.34 -6 5 C-4.02 3.35 -2.04 1.7 0 0 Z " fill="#04526B" transform="translate(101,51)"/>
<path d="M0 0 C0.33 0.99 0.66 1.98 1 3 C6.445 2.505 6.445 2.505 12 2 C9 5 9 5 5.0625 5.4375 C1.82628831 5.33618214 1.15058623 5.12046898 -1.5 3 C-1.995 2.34 -2.49 1.68 -3 1 C-2.01 0.67 -1.02 0.34 0 0 Z " fill="#054A65" transform="translate(74,116)"/>
<path d="M0 0 C1.98 0.99 1.98 0.99 4 2 C3.67 3.98 3.34 5.96 3 8 C2.01 8.33 1.02 8.66 0 9 C0.185625 8.071875 0.37125 7.14375 0.5625 6.1875 C1.24123881 2.98656229 1.24123881 2.98656229 0 0 Z M6 0 C8.72869407 0.03287583 11.2966618 0.56397771 14 1 C14 1.33 14 1.66 14 2 C10.7 2 7.4 2 4 2 C4.66 1.34 5.32 0.68 6 0 Z " fill="#094D65" transform="translate(102,99)"/>
<path d="M0 0 C1.65 0 3.3 0 5 0 C5.33 1.32 5.66 2.64 6 4 C4.02 4 2.04 4 0 4 C0 2.68 0 1.36 0 0 Z " fill="#19CEFB" transform="translate(93,83)"/>
<path d="M0 0 C0 0.99 0 1.98 0 3 C-2.88211302 3.96070434 -4.69850044 4.10581883 -7.6875 4.0625 C-8.89986328 4.04896484 -8.89986328 4.04896484 -10.13671875 4.03515625 C-11.05904297 4.01775391 -11.05904297 4.01775391 -12 4 C-4.23529412 0 -4.23529412 0 0 0 Z " fill="#0A4E68" transform="translate(90,59)"/>
<path d="M0 0 C0.33 0.99 0.66 1.98 1 3 C0.5359375 3.86625 0.5359375 3.86625 0.0625 4.75 C-1.40978898 7.86778843 -1.13077327 10.59989503 -1 14 C-1.66 13.67 -2.32 13.34 -3 13 C-3.4726477 4.80743982 -3.4726477 4.80743982 -1.5 1.4375 C-0.7575 0.7259375 -0.7575 0.7259375 0 0 Z " fill="#054F66" transform="translate(72,102)"/>
<path d="M0 0 C2.97 0 5.94 0 9 0 C9.33 0.99 9.66 1.98 10 3 C6.7 2.67 3.4 2.34 0 2 C0 1.34 0 0.68 0 0 Z " fill="#2DACCD" transform="translate(91,95)"/>
<path d="M0 0 C0.86625 0.3403125 0.86625 0.3403125 1.75 0.6875 C1.09 0.6875 0.43 0.6875 -0.25 0.6875 C-0.58 1.6775 -0.91 2.6675 -1.25 3.6875 C-2.24 3.3575 -3.23 3.0275 -4.25 2.6875 C-4.58 4.0075 -4.91 5.3275 -5.25 6.6875 C-5.58 5.3675 -5.91 4.0475 -6.25 2.6875 C-2.80384615 -0.38942308 -2.80384615 -0.38942308 0 0 Z " fill="#065068" transform="translate(32.25,92.3125)"/>
<path d="M0 0 C1 2 1 2 0.0625 5.125 C-0.288125 6.07375 -0.63875 7.0225 -1 8 C-1.33 7.34 -1.66 6.68 -2 6 C-4.02463255 5.34786708 -4.02463255 5.34786708 -6 5 C-4.02 3.35 -2.04 1.7 0 0 Z " fill="#23C5E9" transform="translate(104,41)"/>
<path d="M0 0 C-1.32 0.99 -2.64 1.98 -4 3 C-4 2.34 -4 1.68 -4 1 C-7.63 1 -11.26 1 -15 1 C-15 0.67 -15 0.34 -15 0 C-13.06325815 -0.19517554 -11.12555991 -0.38087873 -9.1875 -0.5625 C-8.10855469 -0.66691406 -7.02960937 -0.77132812 -5.91796875 -0.87890625 C-3 -1 -3 -1 0 0 Z " fill="#02415A" transform="translate(71,92)"/>
<path d="M0 0 C-0.99 0.33 -1.98 0.66 -3 1 C-3 1.66 -3 2.32 -3 3 C-5.97 3 -8.94 3 -12 3 C-12 2.67 -12 2.34 -12 2 C-10.37787941 1.47026689 -8.75218416 0.95146893 -7.125 0.4375 C-6.22007813 0.14746094 -5.31515625 -0.14257812 -4.3828125 -0.44140625 C-2 -1 -2 -1 0 0 Z " fill="#064B65" transform="translate(104,32)"/>
<path d="M0 0 C2.83374881 3.20336822 3.5205537 5.78087253 4 10 C1.74754119 7.31158141 0.11786042 5.35358125 -1 2 C-0.67 1.34 -0.34 0.68 0 0 Z " fill="#2CB6D9" transform="translate(105,89)"/>
</svg>
