<?xml version="1.0" encoding="UTF-8"?>
<svg version="1.1" xmlns="http://www.w3.org/2000/svg" width="1032" height="300">
<path d="M0 0 C340.56 0 681.12 0 1032 0 C1032 99 1032 198 1032 300 C691.44 300 350.88 300 0 300 C0 201 0 102 0 0 Z " fill="#FEFEFE" transform="translate(0,0)"/>
<path d="M0 0 C46.53 0 93.06 0 141 0 C141 46.53 141 93.06 141 141 C94.47 141 47.94 141 0 141 C0 94.47 0 47.94 0 0 Z " fill="#17CFFA" transform="translate(192,80)"/>
<path d="M0 0 C46.53 0 93.06 0 141 0 C141 46.53 141 93.06 141 141 C94.47 141 47.94 141 0 141 C0 94.47 0 47.94 0 0 Z M7 7 C7 48.91 7 90.82 7 134 C48.91 134 90.82 134 134 134 C134 92.09 134 50.18 134 7 C92.09 7 50.18 7 7 7 Z " fill="#173647" transform="translate(192,80)"/>
<path d="M0 0 C2.25 1.6875 2.25 1.6875 4.25 4.6875 C4.48046875 6.84375 4.48046875 6.84375 4.4375 9.1875 C4.43105469 9.9609375 4.42460937 10.734375 4.41796875 11.53125 C4.25 13.6875 4.25 13.6875 3.25 16.6875 C4.74366742 20.56151907 4.74366742 20.56151907 7.25 23.6875 C9.51396294 24.42950647 11.70299803 24.75240399 14.0546875 25.1171875 C16.54698424 25.76465249 17.58565254 26.49026934 19.3125 28.375 C21.62154395 32.32272029 22.0529956 34.19072464 21.25 38.6875 C19.44232307 41.6515585 17.40604655 44.10947673 14.25 45.6875 C7.20569935 46.26490169 7.20569935 46.26490169 3.25 43.875 C1.25 41.6875 1.25 41.6875 1.25 38.6875 C-3.37 38.6875 -7.99 38.6875 -12.75 38.6875 C-13.41 40.0075 -14.07 41.3275 -14.75 42.6875 C-17.35710061 45.49514682 -18.7984978 45.69288864 -22.6875 46.125 C-26.77931474 45.97232035 -28.90600195 44.70386157 -31.75 41.6875 C-32.98724397 37.9757681 -33.4479689 34.53758649 -32.75 30.6875 C-30.3125 27.75 -30.3125 27.75 -27.75 25.6875 C-27.42 25.3575 -27.09 25.0275 -26.75 24.6875 C-25.656875 24.64625 -24.56375 24.605 -23.4375 24.5625 C-19.53386579 24.02009746 -19.53386579 24.02009746 -17.25 20.75 C-15.24826559 16.69648783 -15.98300308 13.39688866 -16.63671875 9.05859375 C-16.75 6.6875 -16.75 6.6875 -15.0625 3.1875 C-10.64999642 -1.58277414 -6.11664601 -2.91930832 0 0 Z " fill="#173B4C" transform="translate(292.75,154.3125)"/>
<path d="M0 0 C1.65 0 3.3 0 5 0 C5 1.65 5 3.3 5 5 C5.928125 4.360625 6.85625 3.72125 7.8125 3.0625 C13.05332688 -0.32862328 17.88125195 -0.93777474 24 0 C28.75285624 2.23093252 31.23243856 5.70368762 33 10.5625 C34.84641075 18.21356453 34.76789048 26.66146465 30.8125 33.625 C28.33794404 36.97625579 26.04072847 38.73232048 22 40 C14.78016446 40.80220395 14.0932573 40.05328989 7 36 C6.67 42.6 6.34 49.2 6 56 C4.02 56 2.04 56 0 56 C0 37.52 0 19.04 0 0 Z " fill="#244050" transform="translate(461,136)"/>
<path d="M0 0 C2.5625 1.6875 2.5625 1.6875 3.5625 4.6875 C4.2225 4.6875 4.8825 4.6875 5.5625 4.6875 C5.5625 2.7075 5.5625 0.7275 5.5625 -1.3125 C7.2125 -1.3125 8.8625 -1.3125 10.5625 -1.3125 C10.5625 17.1675 10.5625 35.6475 10.5625 54.6875 C8.5825 54.6875 6.6025 54.6875 4.5625 54.6875 C4.5625 47.7575 4.5625 40.8275 4.5625 33.6875 C2.5825 35.0075 0.6025 36.3275 -1.4375 37.6875 C-4.69140625 38.21875 -4.69140625 38.21875 -8 38.1875 C-9.09441406 38.1978125 -10.18882812 38.208125 -11.31640625 38.21875 C-15.12653253 37.57021787 -16.72670293 36.40774236 -19.4375 33.6875 C-23.67164 26.99052212 -24.49228138 19.42256343 -23.4375 11.6875 C-21.80059824 6.31285999 -19.21985332 2.7531111 -14.4375 -0.3125 C-9.28042903 -2.03152366 -4.99849743 -1.9085172 0 0 Z " fill="#234050" transform="translate(695.4375,137.3125)"/>
<path d="M0 0 C1.98 0 3.96 0 6 0 C6 18.15 6 36.3 6 55 C4.35 55 2.7 55 1 55 C1 53.35 1 51.7 1 50 C0.0925 50.825 -0.815 51.65 -1.75 52.5 C-6.77656612 56.09332934 -12.06115774 55.88257795 -18 55 C-23.04550388 52.69854209 -24.97911322 50.10539819 -27 45 C-28.97587245 38.48796966 -29.21534038 30.72706081 -26.3125 24.5 C-23.78195161 20.18371002 -20.77108602 17.59036201 -16 16 C-10.31202112 15.62701778 -6.99549995 15.95396344 -2 19 C-1.67 19.33 -1.34 19.66 -1 20 C-0.67 13.4 -0.34 6.8 0 0 Z " fill="#233F4F" transform="translate(828,120)"/>
<path d="M0 0 C0.495 0.99 0.495 0.99 1 2 C-3.34788056 13.39565468 -9.21975275 21.36048248 -20.27392578 26.69946289 C-30.04432129 31.02823118 -40.57486049 31.84399302 -51.07275391 33.06469727 C-64.48362053 34.63826368 -75.38220635 36.04523427 -86 45 C-86.99 45.66 -87.98 46.32 -89 47 C-87.17910525 36.75746704 -79.34942406 27.85683043 -71 22 C-61.35550887 16.22254924 -51.76109772 14.70578808 -40.75 13.5 C-24.61891472 12.23151438 -24.61891472 12.23151438 -9.5 7.125 C-8.06140625 6.38636719 -8.06140625 6.38636719 -6.59375 5.6328125 C-3.99952554 3.99970132 -2.06665397 2.25187296 0 0 Z " fill="#17394B" transform="translate(304,102)"/>
<path d="M0 0 C1.19354714 3.58064141 0.75567655 4.15153288 -0.8125 7.4375 C-1.16957031 8.19933594 -1.52664063 8.96117187 -1.89453125 9.74609375 C-2.44173828 10.86177734 -2.44173828 10.86177734 -3 12 C-3.28617187 12.72316406 -3.57234375 13.44632813 -3.8671875 14.19140625 C-5.37846117 16.60423283 -6.59221861 16.80507097 -9.3125 17.5 C-13.32558305 18.71101062 -16.05716259 19.88405451 -19 23 C-19.391875 24.19625 -19.78375 25.3925 -20.1875 26.625 C-22 30 -22 30 -23.72729492 30.75170898 C-33.24650743 32.57633646 -42.90677045 32.38188626 -52.56494141 32.45629883 C-54.94207211 32.47809199 -57.318448 32.51750421 -59.6953125 32.55859375 C-60.76750534 32.55876747 -60.76750534 32.55876747 -61.86135864 32.5589447 C-67.85247622 32.67512167 -72.61997839 34.3099892 -78 37 C-76.91182803 30.428014 -75.7708366 25.87421546 -70.2421875 21.66015625 C-63.01137967 16.76872743 -55.59142126 15.86011455 -47.06616211 15.06323242 C-21.58649834 12.69676325 -21.58649834 12.69676325 0 0 Z " fill="#173B4D" transform="translate(292,130)"/>
<path d="M0 0 C2.13134689 1.74008515 3.6964173 3.47877209 4.9296875 5.9453125 C5.01608619 8.35369928 5.04536514 10.73265131 5.02734375 13.140625 C5.0259288 13.84806854 5.02451385 14.55551208 5.02305603 15.28439331 C5.0174535 17.54640919 5.00490068 19.80832648 4.9921875 22.0703125 C4.98717282 23.60286315 4.98260986 25.13541536 4.97851562 26.66796875 C4.96748327 30.42712138 4.95021702 34.18620022 4.9296875 37.9453125 C3.6096875 37.9453125 2.2896875 37.9453125 0.9296875 37.9453125 C0.4346875 35.4703125 0.4346875 35.4703125 -0.0703125 32.9453125 C-0.61558594 33.3784375 -1.16085937 33.8115625 -1.72265625 34.2578125 C-6.35530784 37.67884752 -10.03218524 39.99789067 -15.91796875 39.51171875 C-20.05225263 38.42374931 -22.80967972 36.60139762 -25.0703125 32.9453125 C-25.99757617 29.07794452 -25.99022138 25.81364727 -25.0703125 21.9453125 C-21.55931283 17.5340565 -17.99690568 16.21185078 -12.52734375 15.21484375 C-8.35326335 14.75695576 -4.26610647 14.82712112 -0.0703125 14.9453125 C-0.7303125 11.6453125 -1.3903125 8.3453125 -2.0703125 4.9453125 C-8.80867426 4.00942892 -13.58442907 3.90346031 -20.0703125 5.9453125 C-20.4003125 4.6253125 -20.7303125 3.3053125 -21.0703125 1.9453125 C-14.85039471 -1.44736993 -6.64084251 -3.38307071 0 0 Z " fill="#1E3B4C" transform="translate(785.0703125,137.0546875)"/>
<path d="M0 0 C4.23301121 2.82200747 7.17159664 5.95228992 8.8125 10.875 C8.8125 13.845 8.8125 16.815 8.8125 19.875 C-0.0975 19.875 -9.0075 19.875 -18.1875 19.875 C-16.00552103 28.16337803 -16.00552103 28.16337803 -13.125 31.4375 C-6.96643341 34.45126663 0.24839932 33.01658273 6.8125 31.875 C6.4825 33.525 6.1525 35.175 5.8125 36.875 C-1.87631547 39.34122383 -9.18035293 39.7692877 -16.625 36.25 C-20.42113309 32.73163275 -23.87718801 27.85094283 -24.42578125 22.58984375 C-24.62239212 15.2324581 -23.83664079 8.85761318 -18.69140625 3.2421875 C-13.0729779 -1.66167764 -6.89493922 -2.43350796 0 0 Z " fill="#244050" transform="translate(443.1875,137.125)"/>
<path d="M0 0 C1.98 0 3.96 0 6 0 C6.33 6.6 6.66 13.2 7 20 C8.32 19.01 9.64 18.02 11 17 C16.24717336 15.25094221 21.19155575 15.33020583 26.375 17.25 C29.11486733 19.07657822 30.36791472 20.16481454 32 23 C32.34057617 26.39160156 32.34057617 26.39160156 32.29296875 30.390625 C32.28872391 31.09523865 32.28447906 31.79985229 32.28010559 32.52581787 C32.26336538 34.76760712 32.22572404 37.00848431 32.1875 39.25 C32.17244704 40.77342448 32.1587597 42.29686311 32.14648438 43.8203125 C32.11347791 47.54716941 32.06172854 51.27349563 32 55 C30.35 55 28.7 55 27 55 C26.98541748 54.14245117 26.97083496 53.28490234 26.95581055 52.40136719 C26.89464522 49.21039587 26.82047238 46.02006413 26.73754883 42.82958984 C26.70435807 41.45047333 26.67630783 40.07122289 26.65356445 38.69189453 C26.61991358 36.70577694 26.56605271 34.72003441 26.51171875 32.734375 C26.48553467 31.54038086 26.45935059 30.34638672 26.43237305 29.11621094 C25.9698903 25.78299256 25.37172105 24.34895708 23 22 C19.29941604 21.23163448 15.72702894 21.43004955 12 22 C9.34436198 23.8968843 8.42757473 25.14485055 7 28 C6.84588894 30.0307477 6.75017547 32.06606421 6.68359375 34.1015625 C6.64169922 35.31328125 6.59980469 36.525 6.55664062 37.7734375 C6.51732422 39.04445312 6.47800781 40.31546875 6.4375 41.625 C6.37272461 43.543125 6.37272461 43.543125 6.30664062 45.5 C6.20030114 48.66655348 6.09827167 51.83318753 6 55 C4.02 55 2.04 55 0 55 C0 36.85 0 18.7 0 0 Z " fill="#223E4E" transform="translate(506,120)"/>
<path d="M0 0 C10.89 0 21.78 0 33 0 C32.11312526 6.20812315 31.23535048 8.87192959 27.8125 13.625 C26.91195205 14.92391909 26.01226554 16.22343571 25.11328125 17.5234375 C24.37392334 18.58062988 24.37392334 18.58062988 23.61962891 19.65917969 C20.51521876 24.14592742 17.51744434 28.70453339 14.5 33.25 C13.30248403 35.04714207 12.10459309 36.84403436 10.90625 38.640625 C10.39384766 39.40922852 9.88144531 40.17783203 9.35351562 40.96972656 C8.23567708 42.64648438 7.11783854 44.32324219 6 46 C15.24 46 24.48 46 34 46 C34 47.65 34 49.3 34 51 C22.45 51 10.9 51 -1 51 C-0.12825756 44.8978029 0.75606804 42.08177857 4.04296875 37.32421875 C4.65208855 36.40912285 4.65208855 36.40912285 5.27351379 35.47554016 C6.56646356 33.53802603 7.8761382 31.61258783 9.1875 29.6875 C10.47731659 27.77086119 11.76347752 25.85183348 13.04792786 23.93159485 C13.844392 22.74341422 14.64442289 21.55761183 15.44902039 20.37492371 C18.84780459 15.34727809 21.86037128 10.23271453 25 5 C16.75 5 8.5 5 0 5 C0 3.35 0 1.7 0 0 Z " fill="#1F3C4C" transform="translate(378,124)"/>
<path d="M0 0 C3.69301631 0.6478976 5.27650412 2.48600961 7.44921875 5.4296875 C9.00614916 8.54354832 8.6748907 11.82713682 8.69921875 15.2421875 C8.71984375 15.95439453 8.74046875 16.66660156 8.76171875 17.40039062 C8.7954284 21.95540644 8.2353189 24.80159639 5.44921875 28.4296875 C2.43936003 30.77068873 -0.83138452 30.85096953 -4.5859375 30.74609375 C-7.79408276 30.22947394 -9.39196442 28.77898817 -11.55078125 26.4296875 C-13.4895288 22.53178452 -13.84810335 19.26044838 -13.86328125 14.9296875 C-13.88003906 13.82625 -13.89679687 12.7228125 -13.9140625 11.5859375 C-13.42491012 7.33609747 -11.73786791 4.95881607 -9.16796875 1.6484375 C-6.32975282 -0.49050784 -3.4295508 -0.09011958 0 0 Z " fill="#F8F9F9" transform="translate(819.55078125,140.5703125)"/>
<path d="M0 0 C3.69301631 0.6478976 5.27650412 2.48600961 7.44921875 5.4296875 C8.96539764 8.46204527 8.65956287 11.30893763 8.69921875 14.6796875 C8.725 15.98421875 8.75078125 17.28875 8.77734375 18.6328125 C8.43083479 22.6424162 7.53347041 25.01909387 5.44921875 28.4296875 C2.49833616 30.83411035 -0.8453538 30.85057933 -4.5859375 30.74609375 C-7.79408276 30.22947394 -9.39196442 28.77898817 -11.55078125 26.4296875 C-13.4895288 22.53178452 -13.84810335 19.26044838 -13.86328125 14.9296875 C-13.88003906 13.82625 -13.89679687 12.7228125 -13.9140625 11.5859375 C-13.42491012 7.33609747 -11.73786791 4.95881607 -9.16796875 1.6484375 C-6.32975282 -0.49050784 -3.4295508 -0.09011958 0 0 Z " fill="#F8F9F9" transform="translate(691.55078125,140.5703125)"/>
<path d="M0 0 C2.87357142 2.10340251 4.41389622 4.82779243 6 8 C6.65618792 15.69138305 6.84242922 21.77401958 2 28 C-1.69248562 30.46165708 -4.71511403 30.80846905 -9 30 C-12.52488367 28.03332671 -14.70121477 25.89635569 -16 22 C-16.17241708 19.56637528 -16.26665768 17.12679404 -16.3125 14.6875 C-16.34988281 13.39199219 -16.38726562 12.09648437 -16.42578125 10.76171875 C-15.93641343 6.43822145 -14.72598434 4.34299749 -12 1 C-8.26660267 -0.86669866 -4.05385607 -0.69476464 0 0 Z " fill="#F9FAFA" transform="translate(483,141)"/>
<path d="M0 0 C-0.33 1.65 -0.66 3.3 -1 5 C-2.1446875 4.7525 -2.1446875 4.7525 -3.3125 4.5 C-9.47218301 3.66478874 -15.97856428 3.21901197 -22 5 C-22.27748242 6.41154099 -22.52093516 7.82979799 -22.75 9.25 C-22.88921875 10.03890625 -23.0284375 10.8278125 -23.171875 11.640625 C-23.20084681 14.10111772 -23.20084681 14.10111772 -21.515625 16.046875 C-18.2330184 18.59548261 -14.75786957 20.25721991 -11 22 C-2.13666916 26.11053025 -2.13666916 26.11053025 1 30 C2.25228999 33.75686996 2.76842895 37.11516476 2 41 C-0.37282271 44.85959137 -3.24977876 47.49985251 -7 50 C-9.02124023 50.24291992 -9.02124023 50.24291992 -11.30859375 50.23046875 C-12.55286133 50.22756836 -12.55286133 50.22756836 -13.82226562 50.22460938 C-15.11680664 50.20624023 -15.11680664 50.20624023 -16.4375 50.1875 C-17.29666016 50.18685547 -18.15582031 50.18621094 -19.04101562 50.18554688 C-22.87964047 50.15874499 -26.28810248 50.05490496 -30 49 C-30 47.02 -30 45.04 -30 43 C-29.45472656 43.144375 -28.90945313 43.28875 -28.34765625 43.4375 C-21.48399045 45.12701773 -15.21851527 46.26441671 -8.5 43.625 C-5.90977444 42.24138268 -5.90977444 42.24138268 -5 40 C-4.49968794 36.58428147 -4.49968794 36.58428147 -5 33 C-8.33613679 29.78517728 -11.69920387 28.12376997 -16 26.5 C-20.99327443 24.61478414 -25.2612842 22.63185552 -28.28515625 18.0546875 C-29.67071209 14.07216089 -29.64645084 10.13989731 -29 6 C-23.29566563 -5.13595156 -10.118762 -3.11346523 0 0 Z " fill="#1D3A4B" transform="translate(662,125)"/>
<path d="M0 0 C1.98 0 3.96 0 6 0 C6.0093457 0.92337158 6.01869141 1.84674316 6.02832031 2.7980957 C6.07234734 6.22594506 6.13396107 9.65254051 6.20751953 13.07983398 C6.23573541 14.56278942 6.25694702 16.04589543 6.27099609 17.52905273 C6.2924192 19.66207997 6.33905782 21.79329606 6.390625 23.92578125 C6.41157227 25.20880127 6.43251953 26.49182129 6.45410156 27.8137207 C6.69592549 31.06357248 6.69592549 31.06357248 8.91308594 32.91943359 C12.90979506 34.98885739 17.16296656 34.58011582 21.375 33.25 C23.45399134 31.65077589 24.02890788 30.44696747 25 28 C25.36605713 24.90338319 25.36605713 24.90338319 25.4140625 21.484375 C25.45273437 20.23398438 25.49140625 18.98359375 25.53125 17.6953125 C25.5621875 16.39335937 25.593125 15.09140625 25.625 13.75 C25.66367187 12.43257812 25.70234375 11.11515625 25.7421875 9.7578125 C25.83646182 6.50534839 25.9220675 3.25289004 26 0 C27.98 0 29.96 0 32 0 C32 12.87 32 25.74 32 39 C30.35 39 28.7 39 27 39 C27 37.35 27 35.7 27 34 C26.34 34 25.68 34 25 34 C24.67 34.99 24.34 35.98 24 37 C19.20596178 40.2359758 14.62203166 40.91685463 9 40 C5.05054252 37.95213316 2.24282219 35.84437595 0 32 C-0.34057617 28.60839844 -0.34057617 28.60839844 -0.29296875 24.609375 C-0.28872391 23.90476135 -0.28447906 23.20014771 -0.28010559 22.47418213 C-0.26336538 20.23239288 -0.22572404 17.99151569 -0.1875 15.75 C-0.17244704 14.22657552 -0.1587597 12.70313689 -0.14648438 11.1796875 C-0.11347791 7.45283059 -0.06172854 3.72650437 0 0 Z " fill="#264252" transform="translate(718,136)"/>
<path d="M0 0 C1.98 0 3.96 0 6 0 C6.32798584 0.87325928 6.65597168 1.74651855 6.99389648 2.64624023 C8.20869079 5.87671876 9.42589917 9.10626562 10.64477539 12.33520508 C11.17244465 13.73457682 11.69914064 15.13431595 12.22485352 16.53442383 C12.97939339 18.54344846 13.73739019 20.55113845 14.49609375 22.55859375 C14.95169678 23.76829834 15.4072998 24.97800293 15.87670898 26.22436523 C16.73553801 28.86560481 16.73553801 28.86560481 18 30 C21.3 20.1 24.6 10.2 28 0 C30.31 0 32.62 0 35 0 C31.57804609 9.39852053 28.13860695 18.79044524 24.67419434 28.17340088 C24.06733656 29.81756461 23.4618079 31.46221876 22.85644531 33.10693359 C21.93583996 35.59632563 21.00260127 38.08041808 20.0625 40.5625 C19.80525146 41.26165527 19.54800293 41.96081055 19.28295898 42.68115234 C17.44833018 47.45969255 15.378875 51.4109115 11.046875 54.3046875 C8.66311108 55.11443936 6.76164993 55.19887206 4.25 55.125 C3.45078125 55.10695312 2.6515625 55.08890625 1.828125 55.0703125 C1.22484375 55.04710937 0.6215625 55.02390625 0 55 C0 53.35 0 51.7 0 50 C1.2375 49.938125 2.475 49.87625 3.75 49.8125 C6.99475822 49.39400645 7.83848463 49.14451375 10.375 46.875 C12.49309214 43.12760621 14.4657105 39.45936359 13.62896729 35.0406189 C12.89413725 32.88400993 12.04641442 30.81761592 11.1328125 28.73046875 C10.81923798 27.96825516 10.50566345 27.20604156 10.18258667 26.42073059 C9.18270775 24.0010596 8.15501371 21.59447687 7.125 19.1875 C6.10828005 16.76048334 5.09735472 14.33114618 4.08883667 11.90071106 C3.46057846 10.39237595 2.82640774 8.88648743 2.18582153 7.38334656 C0 2.21519482 0 2.21519482 0 0 Z " fill="#1F3C4C" transform="translate(545,137)"/>
<path d="M0 0 C-10.56911396 9.222858 -19.53804095 15.39630135 -33.828125 15.28515625 C-37.89351739 14.91967147 -40.01411793 13.75619884 -43 11 C-43.804375 10.34 -44.60875 9.68 -45.4375 9 C-47 7 -47 7 -47.1875 4.9375 C-45.31713318 1.88584887 -42.28957723 1.02460951 -39 0 C-36.17935288 -0.43239467 -33.39745284 -0.51027059 -30.546875 -0.546875 C-29.76483704 -0.56719788 -28.98279907 -0.58752075 -28.17706299 -0.60845947 C-26.53680959 -0.64841967 -24.89638016 -0.68167119 -23.25585938 -0.70849609 C-20.74291554 -0.75011734 -18.23115684 -0.81276449 -15.71875 -0.87890625 C-14.11981897 -0.91528288 -12.52086058 -0.95048083 -10.921875 -0.984375 C-10.17186218 -1.0019989 -9.42184937 -1.0196228 -8.64910889 -1.03778076 C-5.47493353 -1.08514011 -3.03697463 -1.01232488 0 0 Z " fill="#173B4D" transform="translate(264,170)"/>
<path d="M0 0 C1.65 0 3.3 0 5 0 C5 2.31 5 4.62 5 7 C5.66 7 6.32 7 7 7 C7.2475 6.401875 7.495 5.80375 7.75 5.1875 C9.29537476 2.48309418 10.20647365 1.43257762 13 0 C16.01726886 -0.24492511 18.98018176 -0.17422028 22 0 C22 1.65 22 3.3 22 5 C21.40832031 5.01417969 20.81664062 5.02835938 20.20703125 5.04296875 C15.74434335 5.31233164 13.56924796 5.53748603 10 8.4375 C7.07543208 12.18460265 6.84362248 14.17339567 6.68359375 18.8828125 C6.64169922 20.04941406 6.59980469 21.21601563 6.55664062 22.41796875 C6.49766602 24.25294922 6.49766602 24.25294922 6.4375 26.125 C6.39431641 27.35605469 6.35113281 28.58710938 6.30664062 29.85546875 C6.20031296 32.90352853 6.09828219 35.9516719 6 39 C4.02 39 2.04 39 0 39 C0 26.13 0 13.26 0 0 Z " fill="#274352" transform="translate(586,136)"/>
<path d="M0 0 C0.99386719 0.00902344 1.98773437 0.01804688 3.01171875 0.02734375 C4.15060547 0.04474609 4.15060547 0.04474609 5.3125 0.0625 C6.09984859 8.09345559 6.09984859 8.09345559 2.875 12.0625 C2.029375 12.7225 1.18375 13.3825 0.3125 14.0625 C-0.0175 14.3925 -0.3475 14.7225 -0.6875 15.0625 C-4.98699553 15.59448626 -8.53970778 15.74570966 -12.3125 13.5 C-13.6875 11.0625 -13.6875 11.0625 -13.6875 7.5 C-12.6875 4.0625 -12.6875 4.0625 -10.8125 2.1875 C-7.06699908 0.20458775 -4.17319692 -0.04909643 0 0 Z " fill="#F5F6F6" transform="translate(778.6875,155.9375)"/>
<path d="M0 0 C3.39896029 0.65151861 5.01355752 1.7135028 7.16015625 4.4140625 C7.16015625 6.7240625 7.16015625 9.0340625 7.16015625 11.4140625 C0.56015625 11.4140625 -6.03984375 11.4140625 -12.83984375 11.4140625 C-11.83984375 5.4140625 -11.83984375 5.4140625 -9.83984375 2.5390625 C-6.28386879 0.0202469 -4.26478118 -0.27055373 0 0 Z " fill="#F9F9FA" transform="translate(437.83984375,140.5859375)"/>
<path d="M0 0 C2.28684568 0.00359002 4.5246271 0.10167473 6.80078125 0.31640625 C10.85212054 6.70033482 10.85212054 6.70033482 10.61328125 9.56640625 C10.34515625 10.14390625 10.07703125 10.72140625 9.80078125 11.31640625 C9.47078125 12.30640625 9.14078125 13.29640625 8.80078125 14.31640625 C6.86518812 14.45144763 4.92690925 14.54841754 2.98828125 14.62890625 C1.36986328 14.71591797 1.36986328 14.71591797 -0.28125 14.8046875 C-3.19921875 14.31640625 -3.19921875 14.31640625 -5.09375 11.921875 C-6.19921875 9.31640625 -6.19921875 9.31640625 -6.07421875 7.31640625 C-5.78546875 6.65640625 -5.49671875 5.99640625 -5.19921875 5.31640625 C-4.70421875 3.95515625 -4.70421875 3.95515625 -4.19921875 2.56640625 C-2.19921875 0.31640625 -2.19921875 0.31640625 0 0 Z " fill="#17CAF4" transform="translate(284.19921875,173.68359375)"/>
<path d="M0 0 C3.25696479 0.41755959 4.63443291 0.63443291 7 3 C6.625 5.625 6.625 5.625 6 8 C4.02 8.33 2.04 8.66 0 9 C-2 6 -2 6 -1.6875 3.375 C-1 1 -1 1 0 0 Z " fill="#17C4ED" transform="translate(301,185)"/>
<path d="M0 0 C3.25696479 0.41755959 4.63443291 0.63443291 7 3 C6.625 5.625 6.625 5.625 6 8 C4.02 8.33 2.04 8.66 0 9 C-2 6 -2 6 -1.6875 3.375 C-1 1 -1 1 0 0 Z " fill="#17C4ED" transform="translate(268,185)"/>
<path d="M0 0 C2.5 -0.3125 2.5 -0.3125 5 0 C5.66 0.66 6.32 1.32 7 2 C6.44444444 6.55555556 6.44444444 6.55555556 5 8 C3.33382885 8.04063832 1.66611905 8.042721 0 8 C-1.125 5.6875 -1.125 5.6875 -2 3 C-1.34 2.01 -0.68 1.02 0 0 Z " fill="#17C9F3" transform="translate(284,160)"/>
</svg>
